<mxfile modified="2020-01-03T06:52:09.067Z" host="www.draw.io" agent="Mozilla/5.0 (Windows NT 10.0; Win64; x64) AppleWebKit/537.36 (KHTML, like Gecko) Chrome/78.0.3904.108 Safari/537.36" etag="NAV0JOlMBwvDpJ8xGx-3" version="12.4.8" type="github">
  <diagram id="SrnjQP2745MXqju4L4kt" name="Page-1">
    <mxGraphModel dx="1422" dy="762" grid="0" gridSize="10" guides="1" tooltips="1" connect="1" arrows="1" fold="1" page="0" pageScale="1" pageWidth="827" pageHeight="1169" background="none" math="0" shadow="0">
      <root>
        <mxCell id="0"/>
        <mxCell id="1" parent="0"/>
        <mxCell id="9wZCDdRf6mnF9_l22fRZ-1" value="服务器VM" style="fillColor=#D4E1F5;strokeColor=none;dashed=0;verticalAlign=top;fontStyle=0;fontColor=#232F3D;" parent="1" vertex="1">
          <mxGeometry x="858" y="210" width="240" height="330" as="geometry"/>
        </mxCell>
        <mxCell id="9wZCDdRf6mnF9_l22fRZ-2" value="终端多用户" style="fillColor=#E6D0DE;strokeColor=none;dashed=0;verticalAlign=top;fontStyle=0;fontColor=#232F3D;" parent="1" vertex="1">
          <mxGeometry x="104" y="232.5" width="130" height="299" as="geometry"/>
        </mxCell>
        <mxCell id="9wZCDdRf6mnF9_l22fRZ-4" value="" style="html=1;shadow=0;dashed=0;shape=mxgraph.bootstrap.rect;fillColor=#f6f6f6;strokeColor=none;whiteSpace=wrap;" parent="1" vertex="1">
          <mxGeometry x="127" y="896.5" width="800" height="40" as="geometry"/>
        </mxCell>
        <mxCell id="9wZCDdRf6mnF9_l22fRZ-5" value="Company" style="html=1;shadow=0;dashed=0;fillColor=none;strokeColor=none;shape=mxgraph.bootstrap.rect;fontColor=#dddddd;fontSize=14;whiteSpace=wrap;" parent="9wZCDdRf6mnF9_l22fRZ-4" vertex="1">
          <mxGeometry width="80" height="40" as="geometry"/>
        </mxCell>
        <mxCell id="9wZCDdRf6mnF9_l22fRZ-6" value="People" style="html=1;shadow=0;dashed=0;shape=mxgraph.bootstrap.rect;fillColor=#f0f0f0;strokeColor=none;fontColor=#999999;spacingRight=30;whiteSpace=wrap;" parent="9wZCDdRf6mnF9_l22fRZ-4" vertex="1">
          <mxGeometry x="80" width="90" height="40" as="geometry"/>
        </mxCell>
        <mxCell id="9wZCDdRf6mnF9_l22fRZ-7" value="84" style="html=1;shadow=0;dashed=0;shape=mxgraph.bootstrap.rrect;rSize=8;fillColor=#ff0000;strokeColor=none;fontColor=#ffffff;whiteSpace=wrap;" parent="9wZCDdRf6mnF9_l22fRZ-6" vertex="1">
          <mxGeometry x="1" y="0.5" width="25" height="16" relative="1" as="geometry">
            <mxPoint x="-30" y="-8" as="offset"/>
          </mxGeometry>
        </mxCell>
        <mxCell id="9wZCDdRf6mnF9_l22fRZ-8" value="Violations" style="html=1;shadow=0;dashed=0;fillColor=none;strokeColor=none;shape=mxgraph.bootstrap.rect;fontColor=#dddddd;spacingRight=30;whiteSpace=wrap;" parent="9wZCDdRf6mnF9_l22fRZ-4" vertex="1">
          <mxGeometry x="170" width="110" height="40" as="geometry"/>
        </mxCell>
        <mxCell id="9wZCDdRf6mnF9_l22fRZ-9" value="42" style="html=1;shadow=0;dashed=0;shape=mxgraph.bootstrap.rrect;rSize=8;fillColor=#ff0000;strokeColor=none;fontColor=#ffffff;whiteSpace=wrap;" parent="9wZCDdRf6mnF9_l22fRZ-8" vertex="1">
          <mxGeometry x="1" y="0.5" width="25" height="16" relative="1" as="geometry">
            <mxPoint x="-30" y="-8" as="offset"/>
          </mxGeometry>
        </mxCell>
        <mxCell id="9wZCDdRf6mnF9_l22fRZ-10" value="Statistics" style="html=1;shadow=0;dashed=0;fillColor=none;strokeColor=none;shape=mxgraph.bootstrap.rect;fontColor=#dddddd;whiteSpace=wrap;" parent="9wZCDdRf6mnF9_l22fRZ-4" vertex="1">
          <mxGeometry x="280" width="80" height="40" as="geometry"/>
        </mxCell>
        <mxCell id="9wZCDdRf6mnF9_l22fRZ-11" value="Settings" style="html=1;shadow=0;dashed=0;fillColor=none;strokeColor=none;shape=mxgraph.bootstrap.rect;fontColor=#dddddd;whiteSpace=wrap;" parent="9wZCDdRf6mnF9_l22fRZ-4" vertex="1">
          <mxGeometry x="360" width="70" height="40" as="geometry"/>
        </mxCell>
        <mxCell id="9wZCDdRf6mnF9_l22fRZ-12" value="Search..." style="html=1;shadow=0;dashed=0;shape=mxgraph.bootstrap.rrect;rSize=5;fillColor=#ffffff;strokeColor=#dddddd;fontColor=#dddddd;align=left;spacingLeft=10;whiteSpace=wrap;" parent="9wZCDdRf6mnF9_l22fRZ-4" vertex="1">
          <mxGeometry x="650" y="5" width="130" height="30" as="geometry"/>
        </mxCell>
        <mxCell id="9wZCDdRf6mnF9_l22fRZ-13" value="" style="outlineConnect=0;dashed=0;verticalLabelPosition=bottom;verticalAlign=top;align=center;html=1;shape=mxgraph.aws3.internet_gateway;fillColor=#F58534;gradientColor=none;" parent="1" vertex="1">
          <mxGeometry x="426" y="349.5" width="69" height="71" as="geometry"/>
        </mxCell>
        <mxCell id="9wZCDdRf6mnF9_l22fRZ-14" value="Client" style="outlineConnect=0;fontColor=#232F3E;gradientColor=none;strokeColor=#232F3E;fillColor=#ffffff;dashed=0;verticalLabelPosition=bottom;verticalAlign=top;align=center;html=1;fontSize=12;fontStyle=0;aspect=fixed;shape=mxgraph.aws4.resourceIcon;resIcon=mxgraph.aws4.client;" parent="1" vertex="1">
          <mxGeometry x="139" y="261.5" width="60" height="60" as="geometry"/>
        </mxCell>
        <mxCell id="9wZCDdRf6mnF9_l22fRZ-16" value="&lt;font style=&quot;font-size: 14px&quot;&gt;NAT gateway&lt;/font&gt;" style="outlineConnect=0;fontColor=#232F3E;gradientColor=none;strokeColor=#232F3E;fillColor=#ffffff;dashed=0;verticalLabelPosition=bottom;verticalAlign=top;align=center;html=1;fontSize=12;fontStyle=0;aspect=fixed;shape=mxgraph.aws4.resourceIcon;resIcon=mxgraph.aws4.nat_gateway;" parent="1" vertex="1">
          <mxGeometry x="297" y="338.5" width="93" height="93" as="geometry"/>
        </mxCell>
        <mxCell id="9wZCDdRf6mnF9_l22fRZ-17" value="Client" style="outlineConnect=0;fontColor=#232F3E;gradientColor=none;strokeColor=#232F3E;fillColor=#ffffff;dashed=0;verticalLabelPosition=bottom;verticalAlign=top;align=center;html=1;fontSize=12;fontStyle=0;aspect=fixed;shape=mxgraph.aws4.resourceIcon;resIcon=mxgraph.aws4.client;" parent="1" vertex="1">
          <mxGeometry x="139" y="354" width="60" height="60" as="geometry"/>
        </mxCell>
        <mxCell id="9wZCDdRf6mnF9_l22fRZ-18" value="Client" style="outlineConnect=0;fontColor=#232F3E;gradientColor=none;strokeColor=#232F3E;fillColor=#ffffff;dashed=0;verticalLabelPosition=bottom;verticalAlign=top;align=center;html=1;fontSize=12;fontStyle=0;aspect=fixed;shape=mxgraph.aws4.resourceIcon;resIcon=mxgraph.aws4.client;" parent="1" vertex="1">
          <mxGeometry x="139" y="448.5" width="60" height="60" as="geometry"/>
        </mxCell>
        <mxCell id="9wZCDdRf6mnF9_l22fRZ-20" value="" style="edgeStyle=orthogonalEdgeStyle;html=1;endArrow=block;elbow=vertical;startArrow=block;startFill=1;endFill=1;strokeColor=#545B64;rounded=0;entryX=0;entryY=0.5;entryDx=0;entryDy=0;entryPerimeter=0;" parent="1" target="9wZCDdRf6mnF9_l22fRZ-13" edge="1">
          <mxGeometry width="100" relative="1" as="geometry">
            <mxPoint x="390" y="385" as="sourcePoint"/>
            <mxPoint x="407" y="406.5" as="targetPoint"/>
          </mxGeometry>
        </mxCell>
        <mxCell id="9wZCDdRf6mnF9_l22fRZ-21" value="VM" style="points=[[0,0],[0.25,0],[0.5,0],[0.75,0],[1,0],[1,0.25],[1,0.5],[1,0.75],[1,1],[0.75,1],[0.5,1],[0.25,1],[0,1],[0,0.75],[0,0.5],[0,0.25]];outlineConnect=0;gradientColor=none;html=1;whiteSpace=wrap;fontSize=12;fontStyle=0;shape=mxgraph.aws4.group;grIcon=mxgraph.aws4.group_vpc;strokeColor=#248814;fillColor=none;verticalAlign=top;align=left;spacingLeft=30;fontColor=#AAB7B8;dashed=0;" parent="1" vertex="1">
          <mxGeometry x="893" y="241.5" width="60" height="47" as="geometry"/>
        </mxCell>
        <mxCell id="9wZCDdRf6mnF9_l22fRZ-22" value="VM" style="points=[[0,0],[0.25,0],[0.5,0],[0.75,0],[1,0],[1,0.25],[1,0.5],[1,0.75],[1,1],[0.75,1],[0.5,1],[0.25,1],[0,1],[0,0.75],[0,0.5],[0,0.25]];outlineConnect=0;gradientColor=none;html=1;whiteSpace=wrap;fontSize=12;fontStyle=0;shape=mxgraph.aws4.group;grIcon=mxgraph.aws4.group_vpc;strokeColor=#248814;fillColor=none;verticalAlign=top;align=left;spacingLeft=30;fontColor=#AAB7B8;dashed=0;" parent="1" vertex="1">
          <mxGeometry x="893" y="301.5" width="60" height="47" as="geometry"/>
        </mxCell>
        <mxCell id="9wZCDdRf6mnF9_l22fRZ-23" value="VM" style="points=[[0,0],[0.25,0],[0.5,0],[0.75,0],[1,0],[1,0.25],[1,0.5],[1,0.75],[1,1],[0.75,1],[0.5,1],[0.25,1],[0,1],[0,0.75],[0,0.5],[0,0.25]];outlineConnect=0;gradientColor=none;html=1;whiteSpace=wrap;fontSize=12;fontStyle=0;shape=mxgraph.aws4.group;grIcon=mxgraph.aws4.group_vpc;strokeColor=#248814;fillColor=none;verticalAlign=top;align=left;spacingLeft=30;fontColor=#AAB7B8;dashed=0;" parent="1" vertex="1">
          <mxGeometry x="893" y="364.5" width="60" height="47" as="geometry"/>
        </mxCell>
        <mxCell id="9wZCDdRf6mnF9_l22fRZ-24" value="VM" style="points=[[0,0],[0.25,0],[0.5,0],[0.75,0],[1,0],[1,0.25],[1,0.5],[1,0.75],[1,1],[0.75,1],[0.5,1],[0.25,1],[0,1],[0,0.75],[0,0.5],[0,0.25]];outlineConnect=0;gradientColor=none;html=1;whiteSpace=wrap;fontSize=12;fontStyle=0;shape=mxgraph.aws4.group;grIcon=mxgraph.aws4.group_vpc;strokeColor=#248814;fillColor=none;verticalAlign=top;align=left;spacingLeft=30;fontColor=#AAB7B8;dashed=0;" parent="1" vertex="1">
          <mxGeometry x="893" y="422" width="60" height="47" as="geometry"/>
        </mxCell>
        <mxCell id="9wZCDdRf6mnF9_l22fRZ-25" value="VM" style="points=[[0,0],[0.25,0],[0.5,0],[0.75,0],[1,0],[1,0.25],[1,0.5],[1,0.75],[1,1],[0.75,1],[0.5,1],[0.25,1],[0,1],[0,0.75],[0,0.5],[0,0.25]];outlineConnect=0;gradientColor=none;html=1;whiteSpace=wrap;fontSize=12;fontStyle=0;shape=mxgraph.aws4.group;grIcon=mxgraph.aws4.group_vpc;strokeColor=#248814;fillColor=none;verticalAlign=top;align=left;spacingLeft=30;fontColor=#AAB7B8;dashed=0;" parent="1" vertex="1">
          <mxGeometry x="893" y="479.5" width="60" height="47" as="geometry"/>
        </mxCell>
        <mxCell id="9wZCDdRf6mnF9_l22fRZ-28" value="协议代理&lt;br&gt;" style="outlineConnect=0;fontColor=#232F3E;gradientColor=none;strokeColor=#232F3E;fillColor=#ffffff;dashed=0;verticalLabelPosition=bottom;verticalAlign=top;align=center;html=1;fontSize=12;fontStyle=0;aspect=fixed;shape=mxgraph.aws4.resourceIcon;resIcon=mxgraph.aws4.peering;" parent="1" vertex="1">
          <mxGeometry x="638" y="342" width="83" height="83" as="geometry"/>
        </mxCell>
        <mxCell id="9wZCDdRf6mnF9_l22fRZ-30" value="交换机" style="outlineConnect=0;dashed=0;verticalLabelPosition=bottom;verticalAlign=top;align=center;html=1;shape=mxgraph.aws3.application_load_balancer;fillColor=#F58536;gradientColor=none;" parent="1" vertex="1">
          <mxGeometry x="745.5" y="346" width="69" height="72" as="geometry"/>
        </mxCell>
        <mxCell id="9wZCDdRf6mnF9_l22fRZ-31" value="VM" style="points=[[0,0],[0.25,0],[0.5,0],[0.75,0],[1,0],[1,0.25],[1,0.5],[1,0.75],[1,1],[0.75,1],[0.5,1],[0.25,1],[0,1],[0,0.75],[0,0.5],[0,0.25]];outlineConnect=0;gradientColor=none;html=1;whiteSpace=wrap;fontSize=12;fontStyle=0;shape=mxgraph.aws4.group;grIcon=mxgraph.aws4.group_vpc;strokeColor=#248814;fillColor=none;verticalAlign=top;align=left;spacingLeft=30;fontColor=#AAB7B8;dashed=0;" parent="1" vertex="1">
          <mxGeometry x="1008" y="238.5" width="60" height="47" as="geometry"/>
        </mxCell>
        <mxCell id="9wZCDdRf6mnF9_l22fRZ-32" value="VM" style="points=[[0,0],[0.25,0],[0.5,0],[0.75,0],[1,0],[1,0.25],[1,0.5],[1,0.75],[1,1],[0.75,1],[0.5,1],[0.25,1],[0,1],[0,0.75],[0,0.5],[0,0.25]];outlineConnect=0;gradientColor=none;html=1;whiteSpace=wrap;fontSize=12;fontStyle=0;shape=mxgraph.aws4.group;grIcon=mxgraph.aws4.group_vpc;strokeColor=#248814;fillColor=none;verticalAlign=top;align=left;spacingLeft=30;fontColor=#AAB7B8;dashed=0;" parent="1" vertex="1">
          <mxGeometry x="1008" y="298.5" width="60" height="47" as="geometry"/>
        </mxCell>
        <mxCell id="9wZCDdRf6mnF9_l22fRZ-33" value="VM" style="points=[[0,0],[0.25,0],[0.5,0],[0.75,0],[1,0],[1,0.25],[1,0.5],[1,0.75],[1,1],[0.75,1],[0.5,1],[0.25,1],[0,1],[0,0.75],[0,0.5],[0,0.25]];outlineConnect=0;gradientColor=none;html=1;whiteSpace=wrap;fontSize=12;fontStyle=0;shape=mxgraph.aws4.group;grIcon=mxgraph.aws4.group_vpc;strokeColor=#248814;fillColor=none;verticalAlign=top;align=left;spacingLeft=30;fontColor=#AAB7B8;dashed=0;" parent="1" vertex="1">
          <mxGeometry x="1008" y="358.5" width="60" height="47" as="geometry"/>
        </mxCell>
        <mxCell id="9wZCDdRf6mnF9_l22fRZ-34" value="VM" style="points=[[0,0],[0.25,0],[0.5,0],[0.75,0],[1,0],[1,0.25],[1,0.5],[1,0.75],[1,1],[0.75,1],[0.5,1],[0.25,1],[0,1],[0,0.75],[0,0.5],[0,0.25]];outlineConnect=0;gradientColor=none;html=1;whiteSpace=wrap;fontSize=12;fontStyle=0;shape=mxgraph.aws4.group;grIcon=mxgraph.aws4.group_vpc;strokeColor=#248814;fillColor=none;verticalAlign=top;align=left;spacingLeft=30;fontColor=#AAB7B8;dashed=0;" parent="1" vertex="1">
          <mxGeometry x="1008" y="418.5" width="60" height="47" as="geometry"/>
        </mxCell>
        <mxCell id="9wZCDdRf6mnF9_l22fRZ-35" value="VM" style="points=[[0,0],[0.25,0],[0.5,0],[0.75,0],[1,0],[1,0.25],[1,0.5],[1,0.75],[1,1],[0.75,1],[0.5,1],[0.25,1],[0,1],[0,0.75],[0,0.5],[0,0.25]];outlineConnect=0;gradientColor=none;html=1;whiteSpace=wrap;fontSize=12;fontStyle=0;shape=mxgraph.aws4.group;grIcon=mxgraph.aws4.group_vpc;strokeColor=#248814;fillColor=none;verticalAlign=top;align=left;spacingLeft=30;fontColor=#AAB7B8;dashed=0;" parent="1" vertex="1">
          <mxGeometry x="1008" y="478.5" width="60" height="47" as="geometry"/>
        </mxCell>
        <mxCell id="9wZCDdRf6mnF9_l22fRZ-41" value="&lt;h1&gt;协议代理架构&lt;/h1&gt;&lt;p&gt;&lt;br&gt;&lt;/p&gt;" style="text;html=1;strokeColor=none;fillColor=none;spacing=5;spacingTop=-20;whiteSpace=wrap;overflow=hidden;rounded=0;" parent="1" vertex="1">
          <mxGeometry x="641.5" y="110" width="231" height="60" as="geometry"/>
        </mxCell>
        <mxCell id="9wZCDdRf6mnF9_l22fRZ-42" value="" style="rounded=1;arcSize=10;dashed=1;strokeColor=#ff0000;fillColor=none;gradientColor=none;dashPattern=8 4;strokeWidth=2;" parent="1" vertex="1">
          <mxGeometry x="77" y="216" width="313" height="330" as="geometry"/>
        </mxCell>
        <mxCell id="9wZCDdRf6mnF9_l22fRZ-48" value="服务器VM" style="fillColor=#D4E1F5;strokeColor=none;dashed=0;verticalAlign=top;fontStyle=0;fontColor=#232F3D;" parent="1" vertex="1">
          <mxGeometry x="1368" y="1171" width="240" height="330" as="geometry"/>
        </mxCell>
        <mxCell id="9wZCDdRf6mnF9_l22fRZ-49" value="终端多用户" style="fillColor=#E6D0DE;strokeColor=none;dashed=0;verticalAlign=top;fontStyle=0;fontColor=#232F3D;" parent="1" vertex="1">
          <mxGeometry x="98" y="1160" width="130" height="299" as="geometry"/>
        </mxCell>
        <mxCell id="9wZCDdRf6mnF9_l22fRZ-50" value="Load Balancing" style="outlineConnect=0;gradientColor=none;html=1;whiteSpace=wrap;fontSize=12;fontStyle=0;shape=mxgraph.aws4.groupCenter;grIcon=mxgraph.aws4.group_elastic_load_balancing;grStroke=1;strokeColor=#007DBC;fillColor=none;verticalAlign=top;align=center;fontColor=#007DBC;dashed=0;spacingTop=25;" parent="1" vertex="1">
          <mxGeometry x="828" y="1095.5" width="90" height="60" as="geometry"/>
        </mxCell>
        <mxCell id="9wZCDdRf6mnF9_l22fRZ-51" value="Load Balancing" style="outlineConnect=0;gradientColor=none;html=1;whiteSpace=wrap;fontSize=12;fontStyle=0;shape=mxgraph.aws4.groupCenter;grIcon=mxgraph.aws4.group_elastic_load_balancing;grStroke=1;strokeColor=#007DBC;fillColor=none;verticalAlign=top;align=center;fontColor=#007DBC;dashed=0;spacingTop=25;" parent="1" vertex="1">
          <mxGeometry x="827" y="1470" width="91" height="60" as="geometry"/>
        </mxCell>
        <mxCell id="9wZCDdRf6mnF9_l22fRZ-52" value="" style="html=1;shadow=0;dashed=0;shape=mxgraph.bootstrap.rect;fillColor=#f6f6f6;strokeColor=none;whiteSpace=wrap;" parent="1" vertex="1">
          <mxGeometry x="188" y="1830" width="800" height="40" as="geometry"/>
        </mxCell>
        <mxCell id="9wZCDdRf6mnF9_l22fRZ-53" value="Company" style="html=1;shadow=0;dashed=0;fillColor=none;strokeColor=none;shape=mxgraph.bootstrap.rect;fontColor=#dddddd;fontSize=14;whiteSpace=wrap;" parent="9wZCDdRf6mnF9_l22fRZ-52" vertex="1">
          <mxGeometry width="80" height="40" as="geometry"/>
        </mxCell>
        <mxCell id="9wZCDdRf6mnF9_l22fRZ-54" value="People" style="html=1;shadow=0;dashed=0;shape=mxgraph.bootstrap.rect;fillColor=#f0f0f0;strokeColor=none;fontColor=#999999;spacingRight=30;whiteSpace=wrap;" parent="9wZCDdRf6mnF9_l22fRZ-52" vertex="1">
          <mxGeometry x="80" width="90" height="40" as="geometry"/>
        </mxCell>
        <mxCell id="9wZCDdRf6mnF9_l22fRZ-55" value="84" style="html=1;shadow=0;dashed=0;shape=mxgraph.bootstrap.rrect;rSize=8;fillColor=#ff0000;strokeColor=none;fontColor=#ffffff;whiteSpace=wrap;" parent="9wZCDdRf6mnF9_l22fRZ-54" vertex="1">
          <mxGeometry x="1" y="0.5" width="25" height="16" relative="1" as="geometry">
            <mxPoint x="-30" y="-8" as="offset"/>
          </mxGeometry>
        </mxCell>
        <mxCell id="9wZCDdRf6mnF9_l22fRZ-56" value="Violations" style="html=1;shadow=0;dashed=0;fillColor=none;strokeColor=none;shape=mxgraph.bootstrap.rect;fontColor=#dddddd;spacingRight=30;whiteSpace=wrap;" parent="9wZCDdRf6mnF9_l22fRZ-52" vertex="1">
          <mxGeometry x="170" width="110" height="40" as="geometry"/>
        </mxCell>
        <mxCell id="9wZCDdRf6mnF9_l22fRZ-57" value="42" style="html=1;shadow=0;dashed=0;shape=mxgraph.bootstrap.rrect;rSize=8;fillColor=#ff0000;strokeColor=none;fontColor=#ffffff;whiteSpace=wrap;" parent="9wZCDdRf6mnF9_l22fRZ-56" vertex="1">
          <mxGeometry x="1" y="0.5" width="25" height="16" relative="1" as="geometry">
            <mxPoint x="-30" y="-8" as="offset"/>
          </mxGeometry>
        </mxCell>
        <mxCell id="9wZCDdRf6mnF9_l22fRZ-58" value="Statistics" style="html=1;shadow=0;dashed=0;fillColor=none;strokeColor=none;shape=mxgraph.bootstrap.rect;fontColor=#dddddd;whiteSpace=wrap;" parent="9wZCDdRf6mnF9_l22fRZ-52" vertex="1">
          <mxGeometry x="280" width="80" height="40" as="geometry"/>
        </mxCell>
        <mxCell id="9wZCDdRf6mnF9_l22fRZ-59" value="Settings" style="html=1;shadow=0;dashed=0;fillColor=none;strokeColor=none;shape=mxgraph.bootstrap.rect;fontColor=#dddddd;whiteSpace=wrap;" parent="9wZCDdRf6mnF9_l22fRZ-52" vertex="1">
          <mxGeometry x="360" width="70" height="40" as="geometry"/>
        </mxCell>
        <mxCell id="9wZCDdRf6mnF9_l22fRZ-60" value="Search..." style="html=1;shadow=0;dashed=0;shape=mxgraph.bootstrap.rrect;rSize=5;fillColor=#ffffff;strokeColor=#dddddd;fontColor=#dddddd;align=left;spacingLeft=10;whiteSpace=wrap;" parent="9wZCDdRf6mnF9_l22fRZ-52" vertex="1">
          <mxGeometry x="650" y="5" width="130" height="30" as="geometry"/>
        </mxCell>
        <mxCell id="9wZCDdRf6mnF9_l22fRZ-61" value="" style="labelPosition=right;align=left;strokeWidth=1;shape=mxgraph.mockup.markup.curlyBrace;html=1;shadow=0;dashed=0;strokeColor=#999999;direction=north;" parent="1" vertex="1">
          <mxGeometry x="798" y="1136" width="20" height="365" as="geometry"/>
        </mxCell>
        <mxCell id="9wZCDdRf6mnF9_l22fRZ-62" value="GLSB" style="text;html=1;strokeColor=none;fillColor=none;align=center;verticalAlign=middle;whiteSpace=wrap;rounded=0;" parent="1" vertex="1">
          <mxGeometry x="738" y="1324" width="60" height="20" as="geometry"/>
        </mxCell>
        <mxCell id="9wZCDdRf6mnF9_l22fRZ-63" value="&lt;font style=&quot;font-size: 14px&quot;&gt;Internet Gateway&lt;/font&gt;" style="outlineConnect=0;dashed=0;verticalLabelPosition=bottom;verticalAlign=top;align=center;html=1;shape=mxgraph.aws3.internet_gateway;fillColor=#F58534;gradientColor=none;" parent="1" vertex="1">
          <mxGeometry x="668" y="1283" width="69" height="71" as="geometry"/>
        </mxCell>
        <mxCell id="9wZCDdRf6mnF9_l22fRZ-64" value="Client" style="outlineConnect=0;fontColor=#232F3E;gradientColor=none;strokeColor=#232F3E;fillColor=#ffffff;dashed=0;verticalLabelPosition=bottom;verticalAlign=top;align=center;html=1;fontSize=12;fontStyle=0;aspect=fixed;shape=mxgraph.aws4.resourceIcon;resIcon=mxgraph.aws4.client;" parent="1" vertex="1">
          <mxGeometry x="133" y="1189.5" width="60" height="60" as="geometry"/>
        </mxCell>
        <mxCell id="9wZCDdRf6mnF9_l22fRZ-65" value="VPN&lt;br&gt;" style="outlineConnect=0;fontColor=#232F3E;gradientColor=none;strokeColor=#232F3E;fillColor=#ffffff;dashed=0;verticalLabelPosition=bottom;verticalAlign=top;align=center;html=1;fontSize=12;fontStyle=0;aspect=fixed;shape=mxgraph.aws4.resourceIcon;resIcon=mxgraph.aws4.vpn_connection;" parent="1" vertex="1">
          <mxGeometry x="505.5" y="1232.5" width="60" height="60" as="geometry"/>
        </mxCell>
        <mxCell id="9wZCDdRf6mnF9_l22fRZ-66" value="&lt;font style=&quot;font-size: 14px&quot;&gt;NAT gateway&lt;/font&gt;" style="outlineConnect=0;fontColor=#232F3E;gradientColor=none;strokeColor=#232F3E;fillColor=#ffffff;dashed=0;verticalLabelPosition=bottom;verticalAlign=top;align=center;html=1;fontSize=12;fontStyle=0;aspect=fixed;shape=mxgraph.aws4.resourceIcon;resIcon=mxgraph.aws4.nat_gateway;" parent="1" vertex="1">
          <mxGeometry x="358" y="1272" width="93" height="93" as="geometry"/>
        </mxCell>
        <mxCell id="9wZCDdRf6mnF9_l22fRZ-67" value="Client" style="outlineConnect=0;fontColor=#232F3E;gradientColor=none;strokeColor=#232F3E;fillColor=#ffffff;dashed=0;verticalLabelPosition=bottom;verticalAlign=top;align=center;html=1;fontSize=12;fontStyle=0;aspect=fixed;shape=mxgraph.aws4.resourceIcon;resIcon=mxgraph.aws4.client;" parent="1" vertex="1">
          <mxGeometry x="133" y="1279.5" width="60" height="60" as="geometry"/>
        </mxCell>
        <mxCell id="9wZCDdRf6mnF9_l22fRZ-68" value="Client" style="outlineConnect=0;fontColor=#232F3E;gradientColor=none;strokeColor=#232F3E;fillColor=#ffffff;dashed=0;verticalLabelPosition=bottom;verticalAlign=top;align=center;html=1;fontSize=12;fontStyle=0;aspect=fixed;shape=mxgraph.aws4.resourceIcon;resIcon=mxgraph.aws4.client;" parent="1" vertex="1">
          <mxGeometry x="133" y="1374" width="60" height="60" as="geometry"/>
        </mxCell>
        <mxCell id="9wZCDdRf6mnF9_l22fRZ-69" value="代理服务器区" style="fillColor=#EFF0F3;strokeColor=none;dashed=0;verticalAlign=top;fontStyle=0;fontColor=#232F3D;" parent="1" vertex="1">
          <mxGeometry x="1038" y="1362.5" width="130" height="285" as="geometry"/>
        </mxCell>
        <mxCell id="9wZCDdRf6mnF9_l22fRZ-70" value="协议代理&lt;br&gt;" style="outlineConnect=0;fontColor=#232F3E;gradientColor=none;strokeColor=#232F3E;fillColor=#ffffff;dashed=0;verticalLabelPosition=bottom;verticalAlign=top;align=center;html=1;fontSize=12;fontStyle=0;aspect=fixed;shape=mxgraph.aws4.resourceIcon;resIcon=mxgraph.aws4.peering;" parent="1" vertex="1">
          <mxGeometry x="1073" y="1392.5" width="60" height="60" as="geometry"/>
        </mxCell>
        <mxCell id="9wZCDdRf6mnF9_l22fRZ-71" value="协议代理&lt;br&gt;" style="outlineConnect=0;fontColor=#232F3E;gradientColor=none;strokeColor=#232F3E;fillColor=#ffffff;dashed=0;verticalLabelPosition=bottom;verticalAlign=top;align=center;html=1;fontSize=12;fontStyle=0;aspect=fixed;shape=mxgraph.aws4.resourceIcon;resIcon=mxgraph.aws4.peering;" parent="1" vertex="1">
          <mxGeometry x="1078" y="1562.5" width="60" height="60" as="geometry"/>
        </mxCell>
        <mxCell id="9wZCDdRf6mnF9_l22fRZ-72" value="协议代理&lt;br&gt;" style="outlineConnect=0;fontColor=#232F3E;gradientColor=none;strokeColor=#232F3E;fillColor=#ffffff;dashed=0;verticalLabelPosition=bottom;verticalAlign=top;align=center;html=1;fontSize=12;fontStyle=0;aspect=fixed;shape=mxgraph.aws4.resourceIcon;resIcon=mxgraph.aws4.peering;" parent="1" vertex="1">
          <mxGeometry x="1073" y="1475" width="60" height="60" as="geometry"/>
        </mxCell>
        <mxCell id="9wZCDdRf6mnF9_l22fRZ-73" value="" style="edgeStyle=orthogonalEdgeStyle;html=1;endArrow=block;elbow=vertical;startArrow=block;startFill=1;endFill=1;strokeColor=#545B64;rounded=0;" parent="1" edge="1">
          <mxGeometry width="100" relative="1" as="geometry">
            <mxPoint x="438" y="1298" as="sourcePoint"/>
            <mxPoint x="678" y="1298" as="targetPoint"/>
          </mxGeometry>
        </mxCell>
        <mxCell id="9wZCDdRf6mnF9_l22fRZ-74" value="" style="edgeStyle=orthogonalEdgeStyle;html=1;endArrow=block;elbow=vertical;startArrow=block;startFill=1;endFill=1;strokeColor=#545B64;rounded=0;" parent="1" target="9wZCDdRf6mnF9_l22fRZ-66" edge="1">
          <mxGeometry width="100" relative="1" as="geometry">
            <mxPoint x="238" y="1319" as="sourcePoint"/>
            <mxPoint x="248" y="1310" as="targetPoint"/>
          </mxGeometry>
        </mxCell>
        <mxCell id="9wZCDdRf6mnF9_l22fRZ-75" value="" style="edgeStyle=orthogonalEdgeStyle;html=1;endArrow=block;elbow=vertical;startArrow=block;startFill=1;endFill=1;strokeColor=#545B64;rounded=0;entryX=0.072;entryY=0.775;entryDx=0;entryDy=0;entryPerimeter=0;" parent="1" target="9wZCDdRf6mnF9_l22fRZ-63" edge="1">
          <mxGeometry width="100" relative="1" as="geometry">
            <mxPoint x="438" y="1338" as="sourcePoint"/>
            <mxPoint x="468" y="1340" as="targetPoint"/>
          </mxGeometry>
        </mxCell>
        <mxCell id="9wZCDdRf6mnF9_l22fRZ-76" value="VM" style="points=[[0,0],[0.25,0],[0.5,0],[0.75,0],[1,0],[1,0.25],[1,0.5],[1,0.75],[1,1],[0.75,1],[0.5,1],[0.25,1],[0,1],[0,0.75],[0,0.5],[0,0.25]];outlineConnect=0;gradientColor=none;html=1;whiteSpace=wrap;fontSize=12;fontStyle=0;shape=mxgraph.aws4.group;grIcon=mxgraph.aws4.group_vpc;strokeColor=#248814;fillColor=none;verticalAlign=top;align=left;spacingLeft=30;fontColor=#AAB7B8;dashed=0;" parent="1" vertex="1">
          <mxGeometry x="1403" y="1202.5" width="60" height="47" as="geometry"/>
        </mxCell>
        <mxCell id="9wZCDdRf6mnF9_l22fRZ-77" value="VM" style="points=[[0,0],[0.25,0],[0.5,0],[0.75,0],[1,0],[1,0.25],[1,0.5],[1,0.75],[1,1],[0.75,1],[0.5,1],[0.25,1],[0,1],[0,0.75],[0,0.5],[0,0.25]];outlineConnect=0;gradientColor=none;html=1;whiteSpace=wrap;fontSize=12;fontStyle=0;shape=mxgraph.aws4.group;grIcon=mxgraph.aws4.group_vpc;strokeColor=#248814;fillColor=none;verticalAlign=top;align=left;spacingLeft=30;fontColor=#AAB7B8;dashed=0;" parent="1" vertex="1">
          <mxGeometry x="1403" y="1262.5" width="60" height="47" as="geometry"/>
        </mxCell>
        <mxCell id="9wZCDdRf6mnF9_l22fRZ-78" value="VM" style="points=[[0,0],[0.25,0],[0.5,0],[0.75,0],[1,0],[1,0.25],[1,0.5],[1,0.75],[1,1],[0.75,1],[0.5,1],[0.25,1],[0,1],[0,0.75],[0,0.5],[0,0.25]];outlineConnect=0;gradientColor=none;html=1;whiteSpace=wrap;fontSize=12;fontStyle=0;shape=mxgraph.aws4.group;grIcon=mxgraph.aws4.group_vpc;strokeColor=#248814;fillColor=none;verticalAlign=top;align=left;spacingLeft=30;fontColor=#AAB7B8;dashed=0;" parent="1" vertex="1">
          <mxGeometry x="1403" y="1325.5" width="60" height="47" as="geometry"/>
        </mxCell>
        <mxCell id="9wZCDdRf6mnF9_l22fRZ-79" value="VM" style="points=[[0,0],[0.25,0],[0.5,0],[0.75,0],[1,0],[1,0.25],[1,0.5],[1,0.75],[1,1],[0.75,1],[0.5,1],[0.25,1],[0,1],[0,0.75],[0,0.5],[0,0.25]];outlineConnect=0;gradientColor=none;html=1;whiteSpace=wrap;fontSize=12;fontStyle=0;shape=mxgraph.aws4.group;grIcon=mxgraph.aws4.group_vpc;strokeColor=#248814;fillColor=none;verticalAlign=top;align=left;spacingLeft=30;fontColor=#AAB7B8;dashed=0;" parent="1" vertex="1">
          <mxGeometry x="1403" y="1383" width="60" height="47" as="geometry"/>
        </mxCell>
        <mxCell id="9wZCDdRf6mnF9_l22fRZ-80" value="VM" style="points=[[0,0],[0.25,0],[0.5,0],[0.75,0],[1,0],[1,0.25],[1,0.5],[1,0.75],[1,1],[0.75,1],[0.5,1],[0.25,1],[0,1],[0,0.75],[0,0.5],[0,0.25]];outlineConnect=0;gradientColor=none;html=1;whiteSpace=wrap;fontSize=12;fontStyle=0;shape=mxgraph.aws4.group;grIcon=mxgraph.aws4.group_vpc;strokeColor=#248814;fillColor=none;verticalAlign=top;align=left;spacingLeft=30;fontColor=#AAB7B8;dashed=0;" parent="1" vertex="1">
          <mxGeometry x="1403" y="1440.5" width="60" height="47" as="geometry"/>
        </mxCell>
        <mxCell id="9wZCDdRf6mnF9_l22fRZ-81" value="代理服务器区" style="fillColor=#EFF0F3;strokeColor=none;dashed=0;verticalAlign=top;fontStyle=0;fontColor=#232F3D;" parent="1" vertex="1">
          <mxGeometry x="1038" y="995" width="130" height="285" as="geometry"/>
        </mxCell>
        <mxCell id="9wZCDdRf6mnF9_l22fRZ-82" value="协议代理&lt;br&gt;" style="outlineConnect=0;fontColor=#232F3E;gradientColor=none;strokeColor=#232F3E;fillColor=#ffffff;dashed=0;verticalLabelPosition=bottom;verticalAlign=top;align=center;html=1;fontSize=12;fontStyle=0;aspect=fixed;shape=mxgraph.aws4.resourceIcon;resIcon=mxgraph.aws4.peering;" parent="1" vertex="1">
          <mxGeometry x="1073" y="1025" width="60" height="60" as="geometry"/>
        </mxCell>
        <mxCell id="9wZCDdRf6mnF9_l22fRZ-83" value="协议代理&lt;br&gt;" style="outlineConnect=0;fontColor=#232F3E;gradientColor=none;strokeColor=#232F3E;fillColor=#ffffff;dashed=0;verticalLabelPosition=bottom;verticalAlign=top;align=center;html=1;fontSize=12;fontStyle=0;aspect=fixed;shape=mxgraph.aws4.resourceIcon;resIcon=mxgraph.aws4.peering;" parent="1" vertex="1">
          <mxGeometry x="1078" y="1195" width="60" height="60" as="geometry"/>
        </mxCell>
        <mxCell id="9wZCDdRf6mnF9_l22fRZ-84" value="协议代理&lt;br&gt;" style="outlineConnect=0;fontColor=#232F3E;gradientColor=none;strokeColor=#232F3E;fillColor=#ffffff;dashed=0;verticalLabelPosition=bottom;verticalAlign=top;align=center;html=1;fontSize=12;fontStyle=0;aspect=fixed;shape=mxgraph.aws4.resourceIcon;resIcon=mxgraph.aws4.peering;" parent="1" vertex="1">
          <mxGeometry x="1073" y="1107.5" width="60" height="60" as="geometry"/>
        </mxCell>
        <mxCell id="9wZCDdRf6mnF9_l22fRZ-85" value="交换机" style="outlineConnect=0;dashed=0;verticalLabelPosition=bottom;verticalAlign=top;align=center;html=1;shape=mxgraph.aws3.application_load_balancer;fillColor=#F58536;gradientColor=none;" parent="1" vertex="1">
          <mxGeometry x="1238" y="1298" width="69" height="72" as="geometry"/>
        </mxCell>
        <mxCell id="9wZCDdRf6mnF9_l22fRZ-86" value="VM" style="points=[[0,0],[0.25,0],[0.5,0],[0.75,0],[1,0],[1,0.25],[1,0.5],[1,0.75],[1,1],[0.75,1],[0.5,1],[0.25,1],[0,1],[0,0.75],[0,0.5],[0,0.25]];outlineConnect=0;gradientColor=none;html=1;whiteSpace=wrap;fontSize=12;fontStyle=0;shape=mxgraph.aws4.group;grIcon=mxgraph.aws4.group_vpc;strokeColor=#248814;fillColor=none;verticalAlign=top;align=left;spacingLeft=30;fontColor=#AAB7B8;dashed=0;" parent="1" vertex="1">
          <mxGeometry x="1518" y="1199.5" width="60" height="47" as="geometry"/>
        </mxCell>
        <mxCell id="9wZCDdRf6mnF9_l22fRZ-87" value="VM" style="points=[[0,0],[0.25,0],[0.5,0],[0.75,0],[1,0],[1,0.25],[1,0.5],[1,0.75],[1,1],[0.75,1],[0.5,1],[0.25,1],[0,1],[0,0.75],[0,0.5],[0,0.25]];outlineConnect=0;gradientColor=none;html=1;whiteSpace=wrap;fontSize=12;fontStyle=0;shape=mxgraph.aws4.group;grIcon=mxgraph.aws4.group_vpc;strokeColor=#248814;fillColor=none;verticalAlign=top;align=left;spacingLeft=30;fontColor=#AAB7B8;dashed=0;" parent="1" vertex="1">
          <mxGeometry x="1518" y="1259.5" width="60" height="47" as="geometry"/>
        </mxCell>
        <mxCell id="9wZCDdRf6mnF9_l22fRZ-88" value="VM" style="points=[[0,0],[0.25,0],[0.5,0],[0.75,0],[1,0],[1,0.25],[1,0.5],[1,0.75],[1,1],[0.75,1],[0.5,1],[0.25,1],[0,1],[0,0.75],[0,0.5],[0,0.25]];outlineConnect=0;gradientColor=none;html=1;whiteSpace=wrap;fontSize=12;fontStyle=0;shape=mxgraph.aws4.group;grIcon=mxgraph.aws4.group_vpc;strokeColor=#248814;fillColor=none;verticalAlign=top;align=left;spacingLeft=30;fontColor=#AAB7B8;dashed=0;" parent="1" vertex="1">
          <mxGeometry x="1518" y="1319.5" width="60" height="47" as="geometry"/>
        </mxCell>
        <mxCell id="9wZCDdRf6mnF9_l22fRZ-89" value="VM" style="points=[[0,0],[0.25,0],[0.5,0],[0.75,0],[1,0],[1,0.25],[1,0.5],[1,0.75],[1,1],[0.75,1],[0.5,1],[0.25,1],[0,1],[0,0.75],[0,0.5],[0,0.25]];outlineConnect=0;gradientColor=none;html=1;whiteSpace=wrap;fontSize=12;fontStyle=0;shape=mxgraph.aws4.group;grIcon=mxgraph.aws4.group_vpc;strokeColor=#248814;fillColor=none;verticalAlign=top;align=left;spacingLeft=30;fontColor=#AAB7B8;dashed=0;" parent="1" vertex="1">
          <mxGeometry x="1518" y="1379.5" width="60" height="47" as="geometry"/>
        </mxCell>
        <mxCell id="9wZCDdRf6mnF9_l22fRZ-90" value="VM" style="points=[[0,0],[0.25,0],[0.5,0],[0.75,0],[1,0],[1,0.25],[1,0.5],[1,0.75],[1,1],[0.75,1],[0.5,1],[0.25,1],[0,1],[0,0.75],[0,0.5],[0,0.25]];outlineConnect=0;gradientColor=none;html=1;whiteSpace=wrap;fontSize=12;fontStyle=0;shape=mxgraph.aws4.group;grIcon=mxgraph.aws4.group_vpc;strokeColor=#248814;fillColor=none;verticalAlign=top;align=left;spacingLeft=30;fontColor=#AAB7B8;dashed=0;" parent="1" vertex="1">
          <mxGeometry x="1518" y="1439.5" width="60" height="47" as="geometry"/>
        </mxCell>
        <mxCell id="9wZCDdRf6mnF9_l22fRZ-91" value="" style="edgeStyle=orthogonalEdgeStyle;html=1;endArrow=block;elbow=vertical;startArrow=block;startFill=1;endFill=1;strokeColor=#545B64;rounded=0;" parent="1" edge="1">
          <mxGeometry width="100" relative="1" as="geometry">
            <mxPoint x="738" y="1300" as="sourcePoint"/>
            <mxPoint x="1248" y="1300" as="targetPoint"/>
          </mxGeometry>
        </mxCell>
        <mxCell id="9wZCDdRf6mnF9_l22fRZ-92" value="VPN&lt;br&gt;" style="outlineConnect=0;fontColor=#232F3E;gradientColor=none;strokeColor=#232F3E;fillColor=#ffffff;dashed=0;verticalLabelPosition=bottom;verticalAlign=top;align=center;html=1;fontSize=12;fontStyle=0;aspect=fixed;shape=mxgraph.aws4.resourceIcon;resIcon=mxgraph.aws4.vpn_connection;" parent="1" vertex="1">
          <mxGeometry x="948" y="1276.5" width="60" height="60" as="geometry"/>
        </mxCell>
        <mxCell id="9wZCDdRf6mnF9_l22fRZ-93" value="" style="edgeStyle=orthogonalEdgeStyle;html=1;endArrow=block;elbow=vertical;startArrow=block;startFill=1;endFill=1;strokeColor=#545B64;rounded=0;" parent="1" edge="1">
          <mxGeometry width="100" relative="1" as="geometry">
            <mxPoint x="1308" y="1340" as="sourcePoint"/>
            <mxPoint x="1368" y="1340" as="targetPoint"/>
          </mxGeometry>
        </mxCell>
        <mxCell id="9wZCDdRf6mnF9_l22fRZ-94" value="" style="edgeStyle=orthogonalEdgeStyle;html=1;endArrow=block;elbow=vertical;startArrow=block;startFill=1;endFill=1;strokeColor=#545B64;rounded=0;" parent="1" edge="1">
          <mxGeometry width="100" relative="1" as="geometry">
            <mxPoint x="738" y="1320" as="sourcePoint"/>
            <mxPoint x="798" y="1320" as="targetPoint"/>
          </mxGeometry>
        </mxCell>
        <mxCell id="9wZCDdRf6mnF9_l22fRZ-95" value="" style="edgeStyle=orthogonalEdgeStyle;html=1;endArrow=block;elbow=vertical;startArrow=block;startFill=1;endFill=1;strokeColor=#545B64;rounded=0;entryX=0.5;entryY=0;entryDx=0;entryDy=0;entryPerimeter=0;" parent="1" target="9wZCDdRf6mnF9_l22fRZ-85" edge="1">
          <mxGeometry width="100" relative="1" as="geometry">
            <mxPoint x="1168" y="1140" as="sourcePoint"/>
            <mxPoint x="1268" y="1140" as="targetPoint"/>
          </mxGeometry>
        </mxCell>
        <mxCell id="9wZCDdRf6mnF9_l22fRZ-96" value="" style="edgeStyle=orthogonalEdgeStyle;html=1;endArrow=block;elbow=vertical;startArrow=block;startFill=1;endFill=1;strokeColor=#545B64;rounded=0;entryX=0.5;entryY=1;entryDx=0;entryDy=0;entryPerimeter=0;" parent="1" target="9wZCDdRf6mnF9_l22fRZ-85" edge="1">
          <mxGeometry width="100" relative="1" as="geometry">
            <mxPoint x="1168" y="1500" as="sourcePoint"/>
            <mxPoint x="1268" y="1500" as="targetPoint"/>
          </mxGeometry>
        </mxCell>
        <mxCell id="9wZCDdRf6mnF9_l22fRZ-97" value="" style="edgeStyle=orthogonalEdgeStyle;html=1;endArrow=block;elbow=vertical;startArrow=block;startFill=1;endFill=1;strokeColor=#545B64;rounded=0;" parent="1" edge="1">
          <mxGeometry width="100" relative="1" as="geometry">
            <mxPoint x="918" y="1130" as="sourcePoint"/>
            <mxPoint x="1028" y="1130" as="targetPoint"/>
          </mxGeometry>
        </mxCell>
        <mxCell id="9wZCDdRf6mnF9_l22fRZ-98" value="" style="edgeStyle=orthogonalEdgeStyle;html=1;endArrow=block;elbow=vertical;startArrow=block;startFill=1;endFill=1;strokeColor=#545B64;rounded=0;" parent="1" edge="1">
          <mxGeometry width="100" relative="1" as="geometry">
            <mxPoint x="918" y="1500" as="sourcePoint"/>
            <mxPoint x="1028" y="1500" as="targetPoint"/>
          </mxGeometry>
        </mxCell>
        <mxCell id="9wZCDdRf6mnF9_l22fRZ-99" value="&lt;font style=&quot;font-size: 14px&quot;&gt;SmartDNS&lt;/font&gt;" style="outlineConnect=0;dashed=0;verticalLabelPosition=bottom;verticalAlign=top;align=center;html=1;shape=mxgraph.aws3.elastic_network_interface;fillColor=#F58536;gradientColor=none;" parent="1" vertex="1">
          <mxGeometry x="668" y="1153.5" width="69" height="72" as="geometry"/>
        </mxCell>
        <mxCell id="9wZCDdRf6mnF9_l22fRZ-100" value="代理路径" style="text;html=1;strokeColor=none;fillColor=none;align=center;verticalAlign=middle;whiteSpace=wrap;rounded=0;" parent="1" vertex="1">
          <mxGeometry x="516" y="1345" width="72" height="20" as="geometry"/>
        </mxCell>
        <mxCell id="9wZCDdRf6mnF9_l22fRZ-101" value="" style="rounded=1;arcSize=10;dashed=1;strokeColor=#ff0000;fillColor=none;gradientColor=none;dashPattern=8 4;strokeWidth=2;" parent="1" vertex="1">
          <mxGeometry x="819" y="981" width="380" height="310" as="geometry"/>
        </mxCell>
        <mxCell id="9wZCDdRf6mnF9_l22fRZ-102" value="" style="rounded=1;arcSize=10;dashed=1;strokeColor=#ff0000;fillColor=none;gradientColor=none;dashPattern=8 4;strokeWidth=2;" parent="1" vertex="1">
          <mxGeometry x="819" y="1353" width="379" height="317" as="geometry"/>
        </mxCell>
        <mxCell id="9wZCDdRf6mnF9_l22fRZ-103" value="负载均衡" style="text;html=1;strokeColor=none;fillColor=none;align=center;verticalAlign=middle;whiteSpace=wrap;rounded=0;" parent="1" vertex="1">
          <mxGeometry x="948" y="1106" width="50" height="20" as="geometry"/>
        </mxCell>
        <mxCell id="9wZCDdRf6mnF9_l22fRZ-104" value="负载均衡" style="text;html=1;strokeColor=none;fillColor=none;align=center;verticalAlign=middle;whiteSpace=wrap;rounded=0;" parent="1" vertex="1">
          <mxGeometry x="953" y="1470" width="55" height="20" as="geometry"/>
        </mxCell>
        <mxCell id="9wZCDdRf6mnF9_l22fRZ-105" value="&lt;h1&gt;协议代理架构&lt;/h1&gt;&lt;p&gt;&lt;br&gt;&lt;/p&gt;" style="text;html=1;strokeColor=none;fillColor=none;spacing=5;spacingTop=-20;whiteSpace=wrap;overflow=hidden;rounded=0;" parent="1" vertex="1">
          <mxGeometry x="618" y="977" width="246" height="78" as="geometry"/>
        </mxCell>
        <mxCell id="9wZCDdRf6mnF9_l22fRZ-106" value="zone 1" style="text;html=1;strokeColor=none;fillColor=none;align=center;verticalAlign=middle;whiteSpace=wrap;rounded=0;" parent="1" vertex="1">
          <mxGeometry x="844" y="1005" width="40" height="20" as="geometry"/>
        </mxCell>
        <mxCell id="9wZCDdRf6mnF9_l22fRZ-107" value="zone 2" style="text;html=1;strokeColor=none;fillColor=none;align=center;verticalAlign=middle;whiteSpace=wrap;rounded=0;" parent="1" vertex="1">
          <mxGeometry x="838" y="1384" width="40" height="20" as="geometry"/>
        </mxCell>
        <mxCell id="9wZCDdRf6mnF9_l22fRZ-108" value="" style="rounded=1;arcSize=10;dashed=1;strokeColor=#ff0000;fillColor=none;gradientColor=none;dashPattern=8 4;strokeWidth=2;" parent="1" vertex="1">
          <mxGeometry x="79" y="1146" width="374" height="330" as="geometry"/>
        </mxCell>
        <mxCell id="9wZCDdRf6mnF9_l22fRZ-109" value="" style="rounded=1;arcSize=10;dashed=1;strokeColor=#F59D56;fillColor=none;gradientColor=none;dashPattern=8 4;strokeWidth=2;" parent="1" vertex="1">
          <mxGeometry x="628" y="1148" width="149" height="239" as="geometry"/>
        </mxCell>
        <mxCell id="9wZCDdRf6mnF9_l22fRZ-110" value="终端" style="verticalAlign=top;align=left;spacingTop=8;spacingLeft=2;spacingRight=12;shape=cube;size=10;direction=south;fontStyle=4;html=1;" parent="1" vertex="1">
          <mxGeometry x="79" y="1911" width="210" height="280" as="geometry"/>
        </mxCell>
        <mxCell id="9wZCDdRf6mnF9_l22fRZ-111" value="" style="html=1;fillColor=#FFB366;" parent="1" vertex="1">
          <mxGeometry x="94" y="1971" width="170" height="170" as="geometry"/>
        </mxCell>
        <mxCell id="9wZCDdRf6mnF9_l22fRZ-112" value="" style="shape=component;jettyWidth=8;jettyHeight=4;" parent="9wZCDdRf6mnF9_l22fRZ-111" vertex="1">
          <mxGeometry x="1" width="20" height="20" relative="1" as="geometry">
            <mxPoint x="-27" y="7" as="offset"/>
          </mxGeometry>
        </mxCell>
        <mxCell id="9wZCDdRf6mnF9_l22fRZ-113" value="RUTP" style="html=1;fillColor=#FFB366;" parent="9wZCDdRf6mnF9_l22fRZ-111" vertex="1">
          <mxGeometry x="30" y="50" width="110" height="50" as="geometry"/>
        </mxCell>
        <mxCell id="9wZCDdRf6mnF9_l22fRZ-115" value="ESTClient" style="text;html=1;strokeColor=none;fillColor=none;align=center;verticalAlign=middle;whiteSpace=wrap;rounded=0;" parent="9wZCDdRf6mnF9_l22fRZ-111" vertex="1">
          <mxGeometry x="20" y="10" width="40" height="20" as="geometry"/>
        </mxCell>
        <mxCell id="9wZCDdRf6mnF9_l22fRZ-116" value="linux服务器" style="verticalAlign=top;align=left;spacingTop=8;spacingLeft=2;spacingRight=12;shape=cube;size=10;direction=south;fontStyle=4;html=1;" parent="1" vertex="1">
          <mxGeometry x="474" y="1911" width="210" height="280" as="geometry"/>
        </mxCell>
        <mxCell id="9wZCDdRf6mnF9_l22fRZ-117" value="服务器" style="verticalAlign=top;align=left;spacingTop=8;spacingLeft=2;spacingRight=12;shape=cube;size=10;direction=south;fontStyle=4;html=1;" parent="1" vertex="1">
          <mxGeometry x="879" y="1911" width="210" height="280" as="geometry"/>
        </mxCell>
        <mxCell id="9wZCDdRf6mnF9_l22fRZ-118" value="" style="html=1;fillColor=#FFFFFF;" parent="1" vertex="1">
          <mxGeometry x="484" y="1976" width="180" height="165" as="geometry"/>
        </mxCell>
        <mxCell id="9wZCDdRf6mnF9_l22fRZ-119" value="" style="shape=component;jettyWidth=8;jettyHeight=4;" parent="9wZCDdRf6mnF9_l22fRZ-118" vertex="1">
          <mxGeometry x="1" width="20" height="20" relative="1" as="geometry">
            <mxPoint x="-27" y="7" as="offset"/>
          </mxGeometry>
        </mxCell>
        <mxCell id="9wZCDdRf6mnF9_l22fRZ-120" value="HTTP代理服务器" style="text;html=1;strokeColor=none;fillColor=none;align=center;verticalAlign=middle;whiteSpace=wrap;rounded=0;" parent="9wZCDdRf6mnF9_l22fRZ-118" vertex="1">
          <mxGeometry x="13" y="5" width="98" height="20" as="geometry"/>
        </mxCell>
        <mxCell id="9wZCDdRf6mnF9_l22fRZ-126" value="UDP代理模块" style="rounded=0;whiteSpace=wrap;html=1;" parent="9wZCDdRf6mnF9_l22fRZ-118" vertex="1">
          <mxGeometry x="24" y="65" width="120" height="60" as="geometry"/>
        </mxCell>
        <mxCell id="9wZCDdRf6mnF9_l22fRZ-121" value="" style="html=1;fillColor=#FFB366;" parent="1" vertex="1">
          <mxGeometry x="894" y="1976" width="170" height="165" as="geometry"/>
        </mxCell>
        <mxCell id="9wZCDdRf6mnF9_l22fRZ-122" value="" style="shape=component;jettyWidth=8;jettyHeight=4;" parent="9wZCDdRf6mnF9_l22fRZ-121" vertex="1">
          <mxGeometry x="1" width="20" height="20" relative="1" as="geometry">
            <mxPoint x="-27" y="7" as="offset"/>
          </mxGeometry>
        </mxCell>
        <mxCell id="9wZCDdRf6mnF9_l22fRZ-123" value="RUTP" style="html=1;fillColor=#FFB366;" parent="9wZCDdRf6mnF9_l22fRZ-121" vertex="1">
          <mxGeometry x="35" y="65" width="110" height="50" as="geometry"/>
        </mxCell>
        <mxCell id="9wZCDdRf6mnF9_l22fRZ-124" value="TCP：HTTP代理服务器与后端服务器建立完连接后正常通信&lt;br&gt;UDP：正常通信&lt;br&gt;" style="shape=doubleArrow;whiteSpace=wrap;html=1;fillColor=#FFFFFF;" parent="1" vertex="1">
          <mxGeometry x="289" y="1991" width="185" height="130" as="geometry"/>
        </mxCell>
        <mxCell id="9wZCDdRf6mnF9_l22fRZ-125" value="正常的UDP、TCP通信" style="shape=doubleArrow;whiteSpace=wrap;html=1;fillColor=#FFFFFF;" parent="1" vertex="1">
          <mxGeometry x="684" y="1991" width="190" height="125" as="geometry"/>
        </mxCell>
        <mxCell id="MAaLrB2QXTfKRqGGUeNI-9" value="" style="endArrow=classic;startArrow=classic;html=1;" parent="1" edge="1">
          <mxGeometry width="50" height="50" relative="1" as="geometry">
            <mxPoint x="240" y="384.5" as="sourcePoint"/>
            <mxPoint x="303" y="384.5" as="targetPoint"/>
          </mxGeometry>
        </mxCell>
        <mxCell id="MAaLrB2QXTfKRqGGUeNI-21" value="协议代理" style="verticalAlign=top;align=left;spacingTop=8;spacingLeft=2;spacingRight=12;shape=cube;size=10;direction=south;fontStyle=4;html=1;" parent="1" vertex="1">
          <mxGeometry x="565.5" y="205" width="249" height="120" as="geometry"/>
        </mxCell>
        <mxCell id="MAaLrB2QXTfKRqGGUeNI-22" value="TCP PROXY" style="shape=component;align=left;spacingLeft=36;fillColor=#ffe6cc;strokeColor=#d79b00;" parent="1" vertex="1">
          <mxGeometry x="574.5" y="253" width="108" height="56" as="geometry"/>
        </mxCell>
        <mxCell id="MAaLrB2QXTfKRqGGUeNI-25" value="RUTP PROXY" style="shape=component;align=left;spacingLeft=36;fillColor=#ffe6cc;strokeColor=#d79b00;" parent="1" vertex="1">
          <mxGeometry x="688.5" y="253" width="108" height="56" as="geometry"/>
        </mxCell>
        <mxCell id="21HnzRUYejhrWbg-gV8_-2" value="&lt;span style=&quot;color: rgb(0 , 0 , 0)&quot;&gt;网关，配置NAT映射&lt;/span&gt;" style="outlineConnect=0;fontColor=#232F3E;gradientColor=none;strokeColor=#232F3E;fillColor=#ffffff;dashed=0;verticalLabelPosition=bottom;verticalAlign=top;align=center;html=1;fontSize=12;fontStyle=0;aspect=fixed;shape=mxgraph.aws4.resourceIcon;resIcon=mxgraph.aws4.nat_gateway;" vertex="1" parent="1">
          <mxGeometry x="534" y="342" width="80" height="80" as="geometry"/>
        </mxCell>
        <mxCell id="21HnzRUYejhrWbg-gV8_-5" value="" style="endArrow=classic;startArrow=classic;html=1;" edge="1" parent="1" source="9wZCDdRf6mnF9_l22fRZ-13">
          <mxGeometry width="50" height="50" relative="1" as="geometry">
            <mxPoint x="480" y="433" as="sourcePoint"/>
            <mxPoint x="538" y="381" as="targetPoint"/>
          </mxGeometry>
        </mxCell>
        <mxCell id="21HnzRUYejhrWbg-gV8_-8" value="" style="endArrow=classic;startArrow=classic;html=1;" edge="1" parent="1" source="21HnzRUYejhrWbg-gV8_-2" target="9wZCDdRf6mnF9_l22fRZ-28">
          <mxGeometry width="50" height="50" relative="1" as="geometry">
            <mxPoint x="602" y="419" as="sourcePoint"/>
            <mxPoint x="652" y="369" as="targetPoint"/>
          </mxGeometry>
        </mxCell>
        <mxCell id="21HnzRUYejhrWbg-gV8_-9" value="" style="endArrow=classic;startArrow=classic;html=1;entryX=0;entryY=0.5;entryDx=0;entryDy=0;entryPerimeter=0;" edge="1" parent="1" source="9wZCDdRf6mnF9_l22fRZ-28" target="9wZCDdRf6mnF9_l22fRZ-30">
          <mxGeometry width="50" height="50" relative="1" as="geometry">
            <mxPoint x="696" y="422" as="sourcePoint"/>
            <mxPoint x="732" y="372" as="targetPoint"/>
          </mxGeometry>
        </mxCell>
        <mxCell id="21HnzRUYejhrWbg-gV8_-11" value="" style="endArrow=classic;startArrow=classic;html=1;" edge="1" parent="1" source="9wZCDdRf6mnF9_l22fRZ-30">
          <mxGeometry width="50" height="50" relative="1" as="geometry">
            <mxPoint x="814.5" y="432" as="sourcePoint"/>
            <mxPoint x="855" y="382" as="targetPoint"/>
          </mxGeometry>
        </mxCell>
      </root>
    </mxGraphModel>
  </diagram>
</mxfile>
